<svg width="510" height="517" viewBox="0 0 510 517" fill="none" xmlns="http://www.w3.org/2000/svg">
<path d="M-186.53 579.5C-232.379 504.137 -253.183 416.664 -245.634 331.002C-238.085 245.34 -202.616 166.411 -144.87 106.774C-87.1246 47.1371 -10.421 10.2195 73.0347 1.8958C156.49 -6.42792 241.903 14.3205 315.681 60.8395C389.46 107.358 447.364 176.975 480.18 258.611C512.996 340.247 518.839 429.212 496.778 511.349C474.717 593.485 426.02 664.075 358.437 711.884C290.853 759.693 208.266 781.974 123.818 775.183L126.698 627.865C178.996 632.071 230.14 618.273 271.993 588.666C313.846 559.059 344.003 515.344 357.665 464.478C371.327 413.612 367.709 358.518 347.387 307.963C327.064 257.407 291.205 214.295 245.516 185.487C199.826 156.678 146.932 143.829 95.2494 148.984C43.5668 154.139 -3.93416 177.001 -39.6948 213.933C-75.4555 250.865 -97.4211 299.744 -102.096 352.793C-106.771 405.842 -93.8872 460.012 -65.4943 506.683L-186.53 579.5Z" fill="white"/>
</svg>
