<svg width="101" height="22" viewBox="0 0 101 22" fill="none" xmlns="http://www.w3.org/2000/svg">
<path d="M19.7 22H14.57L5.99 9.01V22H0.86V0.939999H5.99L14.57 13.99V0.939999H19.7V22ZM28.5486 0.939999V22H23.4186V0.939999H28.5486ZM45.9763 0.939999V5.05H37.3963V9.49H43.8163V13.48H37.3963V22H32.2663V0.939999H45.9763ZM62.3825 0.939999V5.05H53.8025V9.49H60.2225V13.48H53.8025V22H48.6725V0.939999H62.3825ZM80.2288 0.939999V5.05H74.6488V22H69.5188V5.05H63.9388V0.939999H80.2288ZM100.863 0.939999L93.5734 15.04V22H88.4434V15.04L81.1534 0.939999H86.9734L91.0534 9.76L95.1034 0.939999H100.863Z" fill="#00C7BE"/>
</svg>
